<?xml version="1.0" encoding="utf-8"?>
<!-- Generator: Adobe Illustrator 21.1.0, SVG Export Plug-In . SVG Version: 6.00 Build 0)  -->
<svg version="1.1" xmlns="http://www.w3.org/2000/svg" xmlns:xlink="http://www.w3.org/1999/xlink" x="0px" y="0px"
	 viewBox="0 0 800 600" style="enable-background:new 0 0 800 600;" xml:space="preserve">
<style type="text/css">
	.st0{fill:#CCCCCC;}
	.st1{opacity:0.15;}
</style>
<g id="Ebene_1">
	<rect x="-2006.5" y="-2039" class="st0" width="864" height="486"/>
	<rect x="-325.5" y="-2919" class="st0" width="1918" height="1082"/>
	<rect x="3228" y="-2698.5" class="st0" width="1151" height="641"/>
	<rect x="2363" y="-1779" class="st0" width="2880.5" height="1622"/>
	<rect x="-325.5" y="-5034.5" class="st0" width="1918" height="1440"/>
	<rect x="-1827.5" y="-4972" class="st0" width="374" height="667"/>
	<rect x="-2006.5" y="-1406" class="st0" width="864" height="864"/>
	<rect x="-2006.5" y="-202" class="st0" width="864" height="1536"/>
	<rect x="1" y="0.5" class="st0" width="799" height="599"/>
	<rect x="-391.5" y="-661" class="st0" width="100" height="100"/>
</g>
<g id="Ebene_2">
	<rect x="-2006.5" y="-2039.5" class="st1" width="51" height="51"/>
	<rect x="-1193.5" y="-2039.5" class="st1" width="51" height="51"/>
	<rect x="-2006.5" y="-1604.5" class="st1" width="51" height="51"/>
	<rect x="-1193.5" y="-1604.5" class="st1" width="51" height="51"/>
	<rect x="-1600" y="-1822" class="st1" width="51.5" height="51"/>
	<rect x="-327" y="-2918.5" class="st1" width="51" height="51"/>
	<rect x="1542" y="-2918.5" class="st1" width="51" height="51"/>
	<rect x="-327" y="-1889.5" class="st1" width="51" height="51"/>
	<rect x="1542" y="-1889.5" class="st1" width="51" height="51"/>
	<rect x="607.3" y="-2404" class="st1" width="51.5" height="51"/>
	<rect x="3227" y="-2698.5" class="st1" width="51" height="51"/>
	<rect x="4328" y="-2698.5" class="st1" width="51" height="51"/>
	<rect x="3227" y="-2109.5" class="st1" width="51" height="51"/>
	<rect x="4328" y="-2109.5" class="st1" width="51" height="51"/>
	<rect x="3777.3" y="-2404" class="st1" width="51.5" height="51"/>
	<rect x="2363" y="-1778.5" class="st1" width="51" height="51"/>
	<rect x="5192" y="-1778.5" class="st1" width="51" height="51"/>
	<rect x="2363" y="-209.5" class="st1" width="51" height="51"/>
	<rect x="5192" y="-209.5" class="st1" width="51" height="51"/>
	<rect x="3777.3" y="-994" class="st1" width="51.5" height="51"/>
	<rect x="-327" y="-5034.5" class="st1" width="51" height="51"/>
	<rect x="1542" y="-5034.5" class="st1" width="51" height="51"/>
	<rect x="-327" y="-3645.5" class="st1" width="51" height="51"/>
	<rect x="1542" y="-3645.5" class="st1" width="51" height="51"/>
	<rect x="607.3" y="-4340" class="st1" width="51.5" height="51"/>
	<rect x="-1828.5" y="-4972" class="st1" width="51" height="51"/>
	<rect x="-1504.5" y="-4972" class="st1" width="51" height="51"/>
	<rect x="-1828.5" y="-4356" class="st1" width="51" height="51"/>
	<rect x="-1504.5" y="-4356" class="st1" width="51" height="51"/>
	<rect x="-1666.8" y="-4664" class="st1" width="51.5" height="51"/>
	<rect x="-2006.5" y="-1406.5" class="st1" width="51" height="51"/>
	<rect x="-1193.5" y="-1406.5" class="st1" width="51" height="51"/>
	<rect x="-2007" y="-593.5" class="st1" width="51" height="51"/>
	<rect x="-1194" y="-593.5" class="st1" width="51" height="51"/>
	<rect x="-1600.8" y="-1000" class="st1" width="51.5" height="51"/>
	<rect x="-2006.5" y="-202" class="st1" width="51" height="51"/>
	<rect x="-1193.5" y="-202" class="st1" width="51" height="51"/>
	<rect x="-2007" y="1283" class="st1" width="51" height="51"/>
	<rect x="-1194" y="1283" class="st1" width="51" height="51"/>
	<rect x="-1600.8" y="540.5" class="st1" width="51.5" height="51"/>
	<rect y="1" class="st1" width="51" height="51"/>
	<rect x="-367.5" y="-637" class="st1" width="51" height="51"/>
	<rect x="749" y="1" class="st1" width="51" height="51"/>
	<rect y="549" class="st1" width="51" height="51"/>
	<rect x="749" y="549" class="st1" width="51" height="51"/>
	<rect x="374.3" y="274.5" class="st1" width="51.5" height="51"/>
</g>
</svg>
